<?xml version="1.0" encoding="iso-8859-1"?>
<!DOCTYPE svg PUBLIC "-//W3C//DTD SVG 1.1//EN" "http://www.w3.org/Graphics/SVG/1.1/DTD/svg11.dtd">
<svg 
 version="1.1" xmlns="http://www.w3.org/2000/svg" xmlns:xlink="http://www.w3.org/1999/xlink" x="0px" y="0px" width="512px"
	 height="512px" viewBox="0 0 512 512" style="enable-background:new 0 0 512 512;" xml:space="preserve"
><g id="afcae5a789ccd549f9c6e2a2f812ed46"><g></g><g fill="#f28500"><path style="display: inline; fill-rule: evenodd; clip-rule: evenodd;" d="M415.494,376.605
		C404.85,464.688,347.893,498.512,305.981,511.5c23.278-11.805,47.5-34.855,52.944-79.905c5.81-48.086-29.669-90.024-58.991-136.96
		c-13.367-21.393-19.689-46.543-19.689-46.543s-4.811,3.235-7.086,9.636c-3.304,9.292-4.467,22.852-4.467,22.852
		s-4.942-22.962-2.633-45.531c2.385-23.265,12.021-46.158,12.021-46.158s-122.653,99.901-125.589,221.601
		c-1.315,54.575,24.4,82.886,50.838,97.581c-48.533-17.098-110.253-59.436-107.727-164.168C100.149,155.314,290.216,0.5,290.216,0.5
		s-14.933,35.482-18.626,71.529c-3.579,34.98,4.082,70.559,4.082,70.559s1.8-21.007,6.917-35.407
		c3.527-9.918,10.982-14.943,10.982-14.943s9.794,38.979,30.506,72.135C369.519,237.099,424.498,302.096,415.494,376.605z"></path></g></g></svg>